# xmcd
#
# Track frame offsets: 
#        150
#        23427
#        40421
#        56364
#        75317
#        91997
#        109092
#        125905
#        150914
#        158641
#        178612
#        198247
#        214363
#        231913
#        248938
#        272058
#
# Disc length: 3849 seconds
#
# Revision: 0
# Processed by: cddbd v1.5.2PL0 Copyright (c) Steve Scherf et al.
# Submitted via: ExactAudioCopy v1.3
#
DISCID=cb0f0710
DTITLE=Aaron Watson - Vaquero
DYEAR=2017
DGENRE=Country
TTITLE0=Texas Lullaby
TTITLE1=Take You Home Tonight
TTITLE2=These Old Boots Have Roots
TTITLE3=Be My Girl
TTITLE4=They Don't Make Em Like They Used To
TTITLE5=Vaquero
TTITLE6=Outta Style
TTITLE7=Run Wild Horses
TTITLE8=Mariano's Dream
TTITLE9=Clear Isabel
TTITLE10=Big Love in a Small Town
TTITLE11=One Two Step at a Time
TTITLE12=Amen Amigo
TTITLE13=The Arrow
TTITLE14=Rolling Stone
TTITLE15=Diamonds and Daughters
EXTD=
EXTT0=
EXTT1=
EXTT2=
EXTT3=
EXTT4=
EXTT5=
EXTT6=
EXTT7=
EXTT8=
EXTT9=
EXTT10=
EXTT11=
EXTT12=
EXTT13=
EXTT14=
EXTT15=
PLAYORDER=
